<svg xmlns="http://www.w3.org/2000/svg" viewBox="0 0 576.43 266.71"><defs><style>.cls-1,.cls-7{fill:#231f20;}.cls-1{stroke:#231f20;}.cls-1,.cls-2,.cls-6,.cls-8{stroke-miterlimit:10;}.cls-2{fill:none;stroke-width:2px;}.cls-2,.cls-6{stroke:#3e63ae;}.cls-3{fill:#0d273d;}.cls-4,.cls-6{fill:#fff;}.cls-5{fill:#2bb673;}.cls-6{stroke-width:0.86px;}.cls-8{fill:#3e63ae;stroke:#c5c6e4;stroke-width:0.21px;}</style></defs><title>Asset 4</title><g id="Layer_2" data-name="Layer 2"><g id="_4_-_regluvörður" data-name="4 - regluvörður"><line class="cls-1" x1="286.96" y1="102.86" x2="286.96" y2="192.07"/><line class="cls-2" x1="286.96" y1="66.39" x2="286.96" y2="172.51"/><line class="cls-2" x1="153.96" y1="191.15" x2="153.96" y2="221.26"/><line class="cls-2" x1="243.96" y1="191.15" x2="243.96" y2="221.26"/><line class="cls-2" x1="333.96" y1="191.15" x2="333.96" y2="221.26"/><line class="cls-2" x1="423.96" y1="191.15" x2="423.96" y2="221.26"/><rect class="cls-3" x="112.89" y="52.51" width="352.13" height="59.56" rx="5.67" ry="5.67"/><path class="cls-4" d="M246.67,84.38v1.35h-5.4V77.21h1.45v7.17Z"/><path class="cls-4" d="M250.36,85.87a3.05,3.05,0,0,1-2.34-1,3.23,3.23,0,0,1-.89-2.3,3.29,3.29,0,0,1,.89-2.31,3.36,3.36,0,0,1,4.68,0,3.26,3.26,0,0,1,.9,2.31,3.2,3.2,0,0,1-.9,2.3A3,3,0,0,1,250.36,85.87Zm-.45-7.71a.77.77,0,0,1-.57.22.79.79,0,1,1,0-1.57.77.77,0,0,1,.79.8A.76.76,0,0,1,249.91,78.16Zm-1.35,4.46a2,2,0,0,0,.51,1.44,1.67,1.67,0,0,0,1.29.55,1.69,1.69,0,0,0,1.3-.55,2.3,2.3,0,0,0,0-2.89,1.69,1.69,0,0,0-1.3-.55,1.67,1.67,0,0,0-1.29.55A2,2,0,0,0,248.56,82.62Zm3.4-4.46a.77.77,0,0,1-.57.22.8.8,0,0,1-.57-.21.73.73,0,0,1-.22-.56.74.74,0,0,1,.22-.57A.82.82,0,0,1,252,77a.74.74,0,0,1,.22.57A.72.72,0,0,1,252,78.16Z"/><path class="cls-4" d="M259.45,80.39V79.5h1.32v6a2.89,2.89,0,0,1-.78,2.09,3.39,3.39,0,0,1-4.21.15,2.51,2.51,0,0,1-.84-1.51h1.43a1.31,1.31,0,0,0,1.45.94,1.51,1.51,0,0,0,1.12-.4,1.43,1.43,0,0,0,.4-1.07v-1a2.16,2.16,0,0,1-2,1,2.65,2.65,0,0,1-2.09-.91,3.61,3.61,0,0,1,0-4.48,2.64,2.64,0,0,1,2.09-.9A2.25,2.25,0,0,1,259.45,80.39Zm-.05,2.11a1.92,1.92,0,0,0-.48-1.35,1.75,1.75,0,0,0-2.51,0,2.14,2.14,0,0,0,0,2.7,1.75,1.75,0,0,0,2.51,0A1.94,1.94,0,0,0,259.4,82.5Z"/><path class="cls-4" d="M268.39,85.87a3,3,0,0,1-2.33-1,3.2,3.2,0,0,1-.9-2.3,3.26,3.26,0,0,1,.9-2.31,3,3,0,0,1,2.33-1,3.06,3.06,0,0,1,2.35,1,3.29,3.29,0,0,1,.89,2.31,3.23,3.23,0,0,1-.89,2.3A3.06,3.06,0,0,1,268.39,85.87Zm-1.8-3.25a2,2,0,0,0,.51,1.44,1.8,1.8,0,0,0,2.59,0,2.3,2.3,0,0,0,0-2.89,1.8,1.8,0,0,0-2.59,0A2.05,2.05,0,0,0,266.59,82.62Z"/><path class="cls-4" d="M277.49,80.39V79.5h1.32v6a2.75,2.75,0,0,1-3,2.9,2.86,2.86,0,0,1-2-.66,2.53,2.53,0,0,1-.85-1.51h1.43a1.31,1.31,0,0,0,1.45.94,1.53,1.53,0,0,0,1.13-.4,1.47,1.47,0,0,0,.4-1.07v-1a2.18,2.18,0,0,1-2,1,2.63,2.63,0,0,1-2.08-.91,3.57,3.57,0,0,1,0-4.48,2.62,2.62,0,0,1,2.08-.9A2.28,2.28,0,0,1,277.49,80.39Zm-.05,2.11a1.92,1.92,0,0,0-.48-1.35,1.75,1.75,0,0,0-2.51,0,2.14,2.14,0,0,0,0,2.7,1.75,1.75,0,0,0,2.51,0A1.94,1.94,0,0,0,277.44,82.5Z"/><path class="cls-4" d="M287,79.45v1.34a1.93,1.93,0,0,0-.33,0c-1.07,0-1.61.58-1.61,1.73v3.24h-1.42V79.5h1.32v.87a1.92,1.92,0,0,1,1.83-.93Z"/><path class="cls-4" d="M293.47,83h-4.74a1.89,1.89,0,0,0,.54,1.18,1.66,1.66,0,0,0,1.2.44,1.7,1.7,0,0,0,.89-.24,1.36,1.36,0,0,0,.56-.65h1.44a2.92,2.92,0,0,1-1.07,1.53,3,3,0,0,1-1.86.58,2.93,2.93,0,0,1-2.25-.92,3.32,3.32,0,0,1-.85-2.34,3.29,3.29,0,0,1,.86-2.32,2.91,2.91,0,0,1,2.23-.93,2.87,2.87,0,0,1,2.22.92,3.28,3.28,0,0,1,.84,2.3Zm-3.05-2.51a1.56,1.56,0,0,0-1.11.4,1.74,1.74,0,0,0-.56,1h3.32a1.71,1.71,0,0,0-.53-1A1.57,1.57,0,0,0,290.42,80.52Z"/><path class="cls-4" d="M299.33,80.39V79.5h1.32v6a2.75,2.75,0,0,1-3,2.9,2.86,2.86,0,0,1-2-.66,2.53,2.53,0,0,1-.85-1.51h1.43a1.31,1.31,0,0,0,1.45.94,1.53,1.53,0,0,0,1.13-.4,1.47,1.47,0,0,0,.4-1.07v-1a2.18,2.18,0,0,1-2,1,2.63,2.63,0,0,1-2.08-.91,3.57,3.57,0,0,1,0-4.48,2.62,2.62,0,0,1,2.08-.9A2.28,2.28,0,0,1,299.33,80.39Zm-.05,2.11a1.92,1.92,0,0,0-.48-1.35,1.75,1.75,0,0,0-2.51,0,2.14,2.14,0,0,0,0,2.7,1.75,1.75,0,0,0,2.51,0A1.94,1.94,0,0,0,299.28,82.5Z"/><path class="cls-4" d="M303.75,85.73h-1.42v-9h1.42Z"/><path class="cls-4" d="M308.17,84.61c.88,0,1.32-.48,1.32-1.45V79.5h1.43v3.59a3,3,0,0,1-.66,2,3.29,3.29,0,0,1-4.18,0,3,3,0,0,1-.66-2V79.5h1.43v3.66C306.85,84.13,307.29,84.61,308.17,84.61Z"/><path class="cls-4" d="M317.12,80.39V79.5h1.32v6a2.89,2.89,0,0,1-.78,2.09,2.93,2.93,0,0,1-2.19.81,2.86,2.86,0,0,1-2-.66,2.48,2.48,0,0,1-.85-1.51H314a1.31,1.31,0,0,0,1.45.94,1.51,1.51,0,0,0,1.12-.4,1.43,1.43,0,0,0,.4-1.07v-1a2.16,2.16,0,0,1-2,1,2.65,2.65,0,0,1-2.09-.91,3.61,3.61,0,0,1,0-4.48,2.64,2.64,0,0,1,2.09-.9A2.25,2.25,0,0,1,317.12,80.39Zm-.05,2.11a1.92,1.92,0,0,0-.48-1.35,1.6,1.6,0,0,0-1.26-.53,1.57,1.57,0,0,0-1.24.53,2.14,2.14,0,0,0,0,2.7,1.57,1.57,0,0,0,1.24.53,1.6,1.6,0,0,0,1.26-.53A1.94,1.94,0,0,0,317.07,82.5Z"/><path class="cls-4" d="M325.86,83h-4.74a1.79,1.79,0,0,0,.54,1.18,1.66,1.66,0,0,0,1.2.44,1.7,1.7,0,0,0,.89-.24,1.36,1.36,0,0,0,.56-.65h1.44a2.92,2.92,0,0,1-1.07,1.53,3,3,0,0,1-1.86.58,2.9,2.9,0,0,1-2.25-.92,3.33,3.33,0,0,1-.86-2.34,3.29,3.29,0,0,1,.87-2.32,2.9,2.9,0,0,1,2.23-.93,2.83,2.83,0,0,1,2.21.92,3.24,3.24,0,0,1,.85,2.3Zm-3.05-2.51a1.6,1.6,0,0,0-1.12.4,1.73,1.73,0,0,0-.55,1h3.31a1.7,1.7,0,0,0-.52-1A1.57,1.57,0,0,0,322.81,80.52Z"/><path class="cls-4" d="M330.54,79.45v1.34a1.84,1.84,0,0,0-.33,0c-1.07,0-1.6.58-1.6,1.73v3.24h-1.43V79.5h1.32v.87a1.92,1.92,0,0,1,1.83-.93Z"/><path class="cls-4" d="M332.89,79l-.41-.64,1.19-.58a12.27,12.27,0,0,0-1.13-.66l.87-.72a8.48,8.48,0,0,1,1.35.84l1.31-.67.42.64-1.12.55a6.19,6.19,0,0,1,1.95,4.65,3.52,3.52,0,0,1-.9,2.46,3,3,0,0,1-2.32,1,3,3,0,0,1-2.31-1,3.23,3.23,0,0,1-.89-2.3,3.39,3.39,0,0,1,.82-2.32,2.76,2.76,0,0,1,2.19-.94,2.71,2.71,0,0,1,1,.18,1.46,1.46,0,0,1,.57.36,5.17,5.17,0,0,0-1.19-1.6Zm-.56,3.61a2,2,0,0,0,.5,1.42,1.63,1.63,0,0,0,1.27.57,1.66,1.66,0,0,0,1.29-.57,2,2,0,0,0,.51-1.42,2.09,2.09,0,0,0-.5-1.43,1.66,1.66,0,0,0-1.3-.57,1.63,1.63,0,0,0-1.27.57A2,2,0,0,0,332.33,82.62Z"/><rect class="cls-5" x="112.89" y="132.51" width="352.13" height="59.56" rx="5.67" ry="5.67"/><path class="cls-4" d="M263.94,164.59a2.47,2.47,0,0,0,1.36-.31,1,1,0,0,0,.48-.88.9.9,0,0,0-.27-.68,1.58,1.58,0,0,0-.68-.4c-.28-.09-.59-.16-.92-.23a9.54,9.54,0,0,1-1-.26,3.86,3.86,0,0,1-.93-.38,1.82,1.82,0,0,1-.68-.72,2.39,2.39,0,0,1-.27-1.18,2.3,2.3,0,0,1,.84-1.79,3.22,3.22,0,0,1,2.21-.73,3.12,3.12,0,0,1,2.27.79,2.79,2.79,0,0,1,.83,2h-1.43a1.52,1.52,0,0,0-.44-1.09,1.7,1.7,0,0,0-1.23-.42,2,2,0,0,0-1.18.3,1,1,0,0,0-.43.87.8.8,0,0,0,.27.62,1.62,1.62,0,0,0,.69.37,8.64,8.64,0,0,0,.94.23q.5.11,1,.27a3.73,3.73,0,0,1,.93.42,1.9,1.9,0,0,1,.69.74,2.39,2.39,0,0,1,.27,1.18,2.2,2.2,0,0,1-.93,1.86,4,4,0,0,1-2.46.7,3.11,3.11,0,0,1-2.36-.83,2.9,2.9,0,0,1-.83-2h1.44a1.5,1.5,0,0,0,.52,1.11A1.91,1.91,0,0,0,263.94,164.59Z"/><path class="cls-4" d="M276.31,165.73H274.5l-2.72-3.89-1.49,1.55v2.34h-1.45v-8.52h1.45v4.34q.72-.72,3.95-4.34h1.91l-3.36,3.54Z"/><path class="cls-4" d="M278.64,157.21v8.52h-1.45v-8.52Zm-.61-2.77h1.48l-.95,2.05h-1.29Z"/><path class="cls-4" d="M287.5,165.73h-1.71l-1.72-3.36h-2v3.36h-1.45v-8.52h3.74a2.87,2.87,0,0,1,2.09.71,2.49,2.49,0,0,1,.72,1.87,2.62,2.62,0,0,1-.42,1.5,2.31,2.31,0,0,1-1.25.9Zm-2.09-5a1.36,1.36,0,0,0,0-1.8,1.37,1.37,0,0,0-1-.34h-2.3V161h2.3A1.37,1.37,0,0,0,285.41,160.69Z"/><path class="cls-4" d="M294.06,157.21v1.38h-2.47v7.14h-1.45v-7.14h-2.47v-1.38Z"/><path class="cls-4" d="M301.14,164.38v1.35h-6v-8.52h6v1.34h-4.53v2.19h4.33v1.34h-4.33v2.3Z"/><path class="cls-4" d="M304.24,157.21v8.52h-1.45v-8.52Z"/><path class="cls-4" d="M307.68,159.61v6.12h-1.43v-8.52h1.48l4.14,6.13v-6.13h1.43v8.52h-1.49Z"/><path class="cls-4" d="M316.77,157.21v8.52h-1.46v-8.52Z"/><rect class="cls-6" x="112.89" y="222.51" width="82.12" height="43.77" rx="3.27" ry="3.27"/><rect class="cls-6" x="202.89" y="222.51" width="82.12" height="43.77" rx="3.27" ry="3.27"/><rect class="cls-6" x="292.89" y="222.51" width="82.12" height="43.77" rx="3.27" ry="3.27"/><rect class="cls-6" x="382.89" y="222.51" width="82.12" height="43.77" rx="3.27" ry="3.27"/><path class="cls-7" d="M135.67,247.78a2.12,2.12,0,0,0,1.13-.26.83.83,0,0,0,.4-.73.81.81,0,0,0-.22-.57,1.34,1.34,0,0,0-.57-.33c-.24-.07-.49-.14-.77-.2a6.59,6.59,0,0,1-.85-.21,3.56,3.56,0,0,1-.77-.32,1.38,1.38,0,0,1-.57-.6,2,2,0,0,1-.22-1,1.91,1.91,0,0,1,.69-1.49,2.68,2.68,0,0,1,1.85-.61,2.62,2.62,0,0,1,1.88.65,2.38,2.38,0,0,1,.7,1.7h-1.19a1.28,1.28,0,0,0-.37-.91,1.42,1.42,0,0,0-1-.35,1.62,1.62,0,0,0-1,.26.82.82,0,0,0-.35.72.64.64,0,0,0,.22.51,1.3,1.3,0,0,0,.57.31,7.43,7.43,0,0,0,.78.19c.28.06.57.13.85.22a3.94,3.94,0,0,1,.78.35,1.65,1.65,0,0,1,.58.62,2.13,2.13,0,0,1,.22,1,1.85,1.85,0,0,1-.77,1.55,3.32,3.32,0,0,1-2,.58,2.59,2.59,0,0,1-2-.69,2.45,2.45,0,0,1-.69-1.67h1.2a1.28,1.28,0,0,0,.43.93A1.58,1.58,0,0,0,135.67,247.78Z"/><path class="cls-7" d="M143,243.54h1.5l-2,2.19,2.16,3h-1.42l-1.53-2.22-.91,1v1.24h-1.19v-7.5h1.19v4.84Z"/><path class="cls-7" d="M147.51,248.85a2.55,2.55,0,0,1-1.95-.79,2.69,2.69,0,0,1-.74-1.92,2.73,2.73,0,0,1,.74-1.93,2.8,2.8,0,0,1,3.9,0,2.74,2.74,0,0,1,.75,1.93,2.7,2.7,0,0,1-.75,1.92A2.55,2.55,0,0,1,147.51,248.85Zm-1.5-2.71a1.72,1.72,0,0,0,.42,1.2,1.5,1.5,0,0,0,2.16,0,1.9,1.9,0,0,0,0-2.41,1.5,1.5,0,0,0-2.16,0A1.73,1.73,0,0,0,146,246.14Z"/><path class="cls-7" d="M152.63,243.13l-.34-.53,1-.49c-.25-.16-.56-.34-.94-.55l.72-.6a9.28,9.28,0,0,1,1.13.7l1.09-.55.35.53-.93.46a5.16,5.16,0,0,1,1.62,3.87,2.93,2.93,0,0,1-.75,2.05,2.46,2.46,0,0,1-1.93.83,2.53,2.53,0,0,1-1.93-.79,2.69,2.69,0,0,1-.74-1.92,2.84,2.84,0,0,1,.68-1.94,2.32,2.32,0,0,1,1.83-.78,2.13,2.13,0,0,1,.86.16,1.22,1.22,0,0,1,.47.29,4.35,4.35,0,0,0-1-1.33Zm-.47,3a1.75,1.75,0,0,0,.42,1.19,1.37,1.37,0,0,0,1.06.47,1.39,1.39,0,0,0,1.07-.47,1.89,1.89,0,0,0,0-2.39,1.39,1.39,0,0,0-1.08-.47,1.37,1.37,0,0,0-1.06.47A1.76,1.76,0,0,0,152.16,246.14Z"/><path class="cls-7" d="M161.23,243.55h1.1v5.18h-1.1V248a1.91,1.91,0,0,1-1.75.86,2.19,2.19,0,0,1-1.76-.77,3.26,3.26,0,0,1,0-3.88,2.19,2.19,0,0,1,1.76-.77,1.91,1.91,0,0,1,1.75.86Zm-2.56,1.4a2,2,0,0,0,0,2.38,1.43,1.43,0,0,0,2.12,0,2,2,0,0,0,0-2.38,1.43,1.43,0,0,0-2.12,0Z"/><path class="cls-7" d="M164.87,243.54v.69a1.43,1.43,0,0,1,.59-.58,2.09,2.09,0,0,1,1-.23,1.83,1.83,0,0,1,1.42.56,2.12,2.12,0,0,1,.51,1.49v3.26h-1.19v-3.11a1.35,1.35,0,0,0-.26-.87.93.93,0,0,0-.77-.31,1.18,1.18,0,0,0-.9.34,1.29,1.29,0,0,0-.32.94v3h-1.19v-5.19Z"/><path class="cls-7" d="M170.4,242.67a.73.73,0,0,1-.54-.21.69.69,0,0,1-.21-.52.75.75,0,1,1,1.49,0,.69.69,0,0,1-.21.52A.72.72,0,0,1,170.4,242.67Zm-.6,6.06v-5.19H171v5.19Z"/><path class="cls-7" d="M175.23,243.5v1.11l-.27,0c-.9,0-1.34.48-1.34,1.44v2.7h-1.19v-5.19h1.1v.72a1.61,1.61,0,0,1,1.53-.77Z"/><path class="cls-7" d="M225.67,247.78a2.12,2.12,0,0,0,1.13-.26.83.83,0,0,0,.4-.73.81.81,0,0,0-.22-.57,1.34,1.34,0,0,0-.57-.33c-.24-.07-.49-.14-.77-.2a6.59,6.59,0,0,1-.85-.21,3.56,3.56,0,0,1-.77-.32,1.38,1.38,0,0,1-.57-.6,2,2,0,0,1-.22-1,1.91,1.91,0,0,1,.69-1.49,2.68,2.68,0,0,1,1.85-.61,2.62,2.62,0,0,1,1.88.65,2.38,2.38,0,0,1,.7,1.7h-1.19a1.28,1.28,0,0,0-.37-.91,1.42,1.42,0,0,0-1-.35,1.62,1.62,0,0,0-1,.26.82.82,0,0,0-.35.72.64.64,0,0,0,.22.51,1.3,1.3,0,0,0,.57.31,7.43,7.43,0,0,0,.78.19c.28.06.57.13.85.22a3.94,3.94,0,0,1,.78.35,1.65,1.65,0,0,1,.58.62,2.13,2.13,0,0,1,.22,1,1.85,1.85,0,0,1-.77,1.55,3.32,3.32,0,0,1-2,.58,2.59,2.59,0,0,1-2-.69,2.45,2.45,0,0,1-.69-1.67h1.2a1.28,1.28,0,0,0,.43.93A1.58,1.58,0,0,0,225.67,247.78Z"/><path class="cls-7" d="M233,243.54h1.5l-2,2.19,2.16,3h-1.42l-1.53-2.22-.91,1v1.24h-1.19v-7.5h1.19v4.84Z"/><path class="cls-7" d="M237.51,248.85a2.55,2.55,0,0,1-1.95-.79,2.69,2.69,0,0,1-.74-1.92,2.73,2.73,0,0,1,.74-1.93,2.8,2.8,0,0,1,3.9,0,2.74,2.74,0,0,1,.75,1.93,2.7,2.7,0,0,1-.75,1.92A2.55,2.55,0,0,1,237.51,248.85Zm-1.5-2.71a1.72,1.72,0,0,0,.42,1.2,1.5,1.5,0,0,0,2.16,0,1.9,1.9,0,0,0,0-2.41,1.5,1.5,0,0,0-2.16,0A1.73,1.73,0,0,0,236,246.14Z"/><path class="cls-7" d="M242.63,243.13l-.34-.53,1-.49c-.25-.16-.56-.34-.94-.55l.72-.6a9.28,9.28,0,0,1,1.13.7l1.09-.55.35.53-.93.46a5.16,5.16,0,0,1,1.62,3.87,2.93,2.93,0,0,1-.75,2.05,2.46,2.46,0,0,1-1.93.83,2.53,2.53,0,0,1-1.93-.79,2.69,2.69,0,0,1-.74-1.92,2.84,2.84,0,0,1,.68-1.94,2.32,2.32,0,0,1,1.83-.78,2.13,2.13,0,0,1,.86.16,1.22,1.22,0,0,1,.47.29,4.35,4.35,0,0,0-1-1.33Zm-.47,3a1.75,1.75,0,0,0,.42,1.19,1.37,1.37,0,0,0,1.06.47,1.39,1.39,0,0,0,1.07-.47,1.89,1.89,0,0,0,0-2.39,1.39,1.39,0,0,0-1.08-.47,1.37,1.37,0,0,0-1.06.47A1.76,1.76,0,0,0,242.16,246.14Z"/><path class="cls-7" d="M251.23,243.55h1.1v5.18h-1.1V248a1.91,1.91,0,0,1-1.75.86,2.19,2.19,0,0,1-1.76-.77,3.26,3.26,0,0,1,0-3.88,2.19,2.19,0,0,1,1.76-.77,1.91,1.91,0,0,1,1.75.86Zm-2.56,1.4a2,2,0,0,0,0,2.38,1.43,1.43,0,0,0,2.12,0,2,2,0,0,0,0-2.38,1.43,1.43,0,0,0-2.12,0Z"/><path class="cls-7" d="M254.87,243.54v.69a1.43,1.43,0,0,1,.59-.58,2.09,2.09,0,0,1,1-.23,1.83,1.83,0,0,1,1.42.56,2.12,2.12,0,0,1,.51,1.49v3.26h-1.19v-3.11a1.35,1.35,0,0,0-.26-.87.93.93,0,0,0-.77-.31,1.18,1.18,0,0,0-.9.34,1.29,1.29,0,0,0-.32.94v3h-1.19v-5.19Z"/><path class="cls-7" d="M260.4,242.67a.73.73,0,0,1-.54-.21.69.69,0,0,1-.21-.52.75.75,0,1,1,1.49,0,.69.69,0,0,1-.21.52A.72.72,0,0,1,260.4,242.67Zm-.6,6.06v-5.19H261v5.19Z"/><path class="cls-7" d="M265.23,243.5v1.11l-.27,0c-.9,0-1.34.48-1.34,1.44v2.7h-1.19v-5.19h1.1v.72a1.61,1.61,0,0,1,1.53-.77Z"/><path class="cls-7" d="M315.67,247.78a2.12,2.12,0,0,0,1.13-.26.83.83,0,0,0,.4-.73.81.81,0,0,0-.22-.57,1.34,1.34,0,0,0-.57-.33c-.24-.07-.49-.14-.77-.2a6.59,6.59,0,0,1-.85-.21,3.56,3.56,0,0,1-.77-.32,1.38,1.38,0,0,1-.57-.6,2,2,0,0,1-.22-1,1.91,1.91,0,0,1,.69-1.49,2.68,2.68,0,0,1,1.85-.61,2.62,2.62,0,0,1,1.88.65,2.38,2.38,0,0,1,.7,1.7h-1.19a1.28,1.28,0,0,0-.37-.91,1.42,1.42,0,0,0-1-.35,1.62,1.62,0,0,0-1,.26.82.82,0,0,0-.35.72.64.64,0,0,0,.22.51,1.3,1.3,0,0,0,.57.31,7.43,7.43,0,0,0,.78.19c.28.06.57.13.85.22a3.94,3.94,0,0,1,.78.35,1.65,1.65,0,0,1,.58.62,2.13,2.13,0,0,1,.22,1,1.85,1.85,0,0,1-.77,1.55,3.32,3.32,0,0,1-2.05.58,2.59,2.59,0,0,1-2-.69,2.45,2.45,0,0,1-.69-1.67h1.2a1.28,1.28,0,0,0,.43.93A1.58,1.58,0,0,0,315.67,247.78Z"/><path class="cls-7" d="M323,243.54h1.5l-2,2.19,2.16,3h-1.42l-1.53-2.22-.91,1v1.24h-1.19v-7.5h1.19v4.84Z"/><path class="cls-7" d="M327.51,248.85a2.55,2.55,0,0,1-1.95-.79,2.69,2.69,0,0,1-.74-1.92,2.73,2.73,0,0,1,.74-1.93,2.8,2.8,0,0,1,3.9,0,2.74,2.74,0,0,1,.75,1.93,2.7,2.7,0,0,1-.75,1.92A2.55,2.55,0,0,1,327.51,248.85Zm-1.5-2.71a1.72,1.72,0,0,0,.42,1.2,1.5,1.5,0,0,0,2.16,0,1.9,1.9,0,0,0,0-2.41,1.5,1.5,0,0,0-2.16,0A1.73,1.73,0,0,0,326,246.14Z"/><path class="cls-7" d="M332.63,243.13l-.34-.53,1-.49c-.25-.16-.56-.34-.94-.55l.72-.6a9.28,9.28,0,0,1,1.13.7l1.09-.55.35.53-.93.46a5.16,5.16,0,0,1,1.62,3.87,2.93,2.93,0,0,1-.75,2.05,2.46,2.46,0,0,1-1.93.83,2.53,2.53,0,0,1-1.93-.79,2.69,2.69,0,0,1-.74-1.92,2.84,2.84,0,0,1,.68-1.94,2.32,2.32,0,0,1,1.83-.78,2.13,2.13,0,0,1,.86.16,1.22,1.22,0,0,1,.47.29,4.35,4.35,0,0,0-1-1.33Zm-.47,3a1.75,1.75,0,0,0,.42,1.19,1.37,1.37,0,0,0,1.06.47,1.39,1.39,0,0,0,1.07-.47,1.89,1.89,0,0,0,0-2.39,1.39,1.39,0,0,0-1.08-.47,1.37,1.37,0,0,0-1.06.47A1.76,1.76,0,0,0,332.16,246.14Z"/><path class="cls-7" d="M341.23,243.55h1.1v5.18h-1.1V248a1.91,1.91,0,0,1-1.75.86,2.19,2.19,0,0,1-1.76-.77,3.26,3.26,0,0,1,0-3.88,2.19,2.19,0,0,1,1.76-.77,1.91,1.91,0,0,1,1.75.86Zm-2.56,1.4a2,2,0,0,0,0,2.38,1.43,1.43,0,0,0,2.12,0,2,2,0,0,0,0-2.38,1.43,1.43,0,0,0-2.12,0Z"/><path class="cls-7" d="M344.87,243.54v.69a1.43,1.43,0,0,1,.59-.58,2.09,2.09,0,0,1,1-.23,1.83,1.83,0,0,1,1.42.56,2.12,2.12,0,0,1,.51,1.49v3.26h-1.19v-3.11a1.35,1.35,0,0,0-.26-.87.93.93,0,0,0-.77-.31,1.18,1.18,0,0,0-.9.34,1.29,1.29,0,0,0-.32.94v3h-1.19v-5.19Z"/><path class="cls-7" d="M350.4,242.67a.73.73,0,0,1-.54-.21.69.69,0,0,1-.21-.52.75.75,0,1,1,1.49,0,.69.69,0,0,1-.21.52A.72.72,0,0,1,350.4,242.67Zm-.6,6.06v-5.19H351v5.19Z"/><path class="cls-7" d="M355.23,243.5v1.11l-.27,0c-.9,0-1.34.48-1.34,1.44v2.7h-1.19v-5.19h1.1v.72a1.61,1.61,0,0,1,1.53-.77Z"/><path class="cls-7" d="M405.67,247.78a2.12,2.12,0,0,0,1.13-.26.83.83,0,0,0,.4-.73.81.81,0,0,0-.22-.57,1.34,1.34,0,0,0-.57-.33c-.24-.07-.49-.14-.77-.2a6.59,6.59,0,0,1-.85-.21,3.56,3.56,0,0,1-.77-.32,1.38,1.38,0,0,1-.57-.6,2,2,0,0,1-.22-1,1.91,1.91,0,0,1,.69-1.49,2.68,2.68,0,0,1,1.85-.61,2.62,2.62,0,0,1,1.88.65,2.38,2.38,0,0,1,.7,1.7h-1.19a1.28,1.28,0,0,0-.37-.91,1.42,1.42,0,0,0-1-.35,1.62,1.62,0,0,0-1,.26.82.82,0,0,0-.35.72.64.64,0,0,0,.22.51,1.3,1.3,0,0,0,.57.31,7.43,7.43,0,0,0,.78.19c.28.06.57.13.85.22a3.94,3.94,0,0,1,.78.35,1.65,1.65,0,0,1,.58.62,2.13,2.13,0,0,1,.22,1,1.85,1.85,0,0,1-.77,1.55,3.32,3.32,0,0,1-2.05.58,2.59,2.59,0,0,1-2-.69,2.45,2.45,0,0,1-.69-1.67h1.2a1.28,1.28,0,0,0,.43.93A1.58,1.58,0,0,0,405.67,247.78Z"/><path class="cls-7" d="M413,243.54h1.5l-2,2.19,2.16,3h-1.42l-1.53-2.22-.91,1v1.24h-1.19v-7.5h1.19v4.84Z"/><path class="cls-7" d="M417.51,248.85a2.55,2.55,0,0,1-1.95-.79,2.69,2.69,0,0,1-.74-1.92,2.73,2.73,0,0,1,.74-1.93,2.8,2.8,0,0,1,3.9,0,2.74,2.74,0,0,1,.75,1.93,2.7,2.7,0,0,1-.75,1.92A2.55,2.55,0,0,1,417.51,248.85Zm-1.5-2.71a1.72,1.72,0,0,0,.42,1.2,1.5,1.5,0,0,0,2.16,0,1.9,1.9,0,0,0,0-2.41,1.5,1.5,0,0,0-2.16,0A1.73,1.73,0,0,0,416,246.14Z"/><path class="cls-7" d="M422.63,243.13l-.34-.53,1-.49c-.25-.16-.56-.34-.94-.55l.72-.6a9.28,9.28,0,0,1,1.13.7l1.09-.55.35.53-.93.46a5.16,5.16,0,0,1,1.62,3.87,2.93,2.93,0,0,1-.75,2.05,2.46,2.46,0,0,1-1.93.83,2.53,2.53,0,0,1-1.93-.79,2.69,2.69,0,0,1-.74-1.92,2.84,2.84,0,0,1,.68-1.94,2.32,2.32,0,0,1,1.83-.78,2.13,2.13,0,0,1,.86.16,1.22,1.22,0,0,1,.47.29,4.35,4.35,0,0,0-1-1.33Zm-.47,3a1.75,1.75,0,0,0,.42,1.19,1.37,1.37,0,0,0,1.06.47,1.39,1.39,0,0,0,1.07-.47,1.89,1.89,0,0,0,0-2.39,1.39,1.39,0,0,0-1.08-.47,1.37,1.37,0,0,0-1.06.47A1.76,1.76,0,0,0,422.16,246.14Z"/><path class="cls-7" d="M431.23,243.55h1.1v5.18h-1.1V248a1.91,1.91,0,0,1-1.75.86,2.19,2.19,0,0,1-1.76-.77,3.26,3.26,0,0,1,0-3.88,2.19,2.19,0,0,1,1.76-.77,1.91,1.91,0,0,1,1.75.86Zm-2.56,1.4a2,2,0,0,0,0,2.38,1.43,1.43,0,0,0,2.12,0,2,2,0,0,0,0-2.38,1.43,1.43,0,0,0-2.12,0Z"/><path class="cls-7" d="M434.87,243.54v.69a1.43,1.43,0,0,1,.59-.58,2.09,2.09,0,0,1,1-.23,1.83,1.83,0,0,1,1.42.56,2.12,2.12,0,0,1,.51,1.49v3.26h-1.19v-3.11a1.35,1.35,0,0,0-.26-.87.93.93,0,0,0-.77-.31,1.18,1.18,0,0,0-.9.34,1.29,1.29,0,0,0-.32.94v3h-1.19v-5.19Z"/><path class="cls-7" d="M440.4,242.67a.73.73,0,0,1-.54-.21.69.69,0,0,1-.21-.52.75.75,0,1,1,1.49,0,.69.69,0,0,1-.21.52A.72.72,0,0,1,440.4,242.67Zm-.6,6.06v-5.19H441v5.19Z"/><path class="cls-7" d="M445.23,243.5v1.11l-.27,0c-.9,0-1.34.48-1.34,1.44v2.7h-1.19v-5.19h1.1v.72a1.61,1.61,0,0,1,1.53-.77Z"/><rect class="cls-8" x="235.13" y="0.1" width="108.45" height="29.86" rx="5.16" ry="5.16"/><path class="cls-4" d="M276.72,17.29a1.94,1.94,0,0,0,1-.23.77.77,0,0,0,.37-.67.7.7,0,0,0-.2-.52,1.17,1.17,0,0,0-.52-.3,6.12,6.12,0,0,0-.71-.18c-.25-.05-.51-.12-.76-.19a3.52,3.52,0,0,1-.71-.3,1.32,1.32,0,0,1-.52-.55,1.86,1.86,0,0,1-.2-.89,1.73,1.73,0,0,1,.63-1.35,2.45,2.45,0,0,1,1.68-.56,2.35,2.35,0,0,1,1.72.6,2.09,2.09,0,0,1,.63,1.54h-1.08a1.18,1.18,0,0,0-.34-.83,1.3,1.3,0,0,0-.93-.32,1.52,1.52,0,0,0-.89.23.77.77,0,0,0-.33.66.62.62,0,0,0,.2.47,1.35,1.35,0,0,0,.53.29c.21.06.45.12.71.17a7.27,7.27,0,0,1,.77.2,3.07,3.07,0,0,1,.71.32,1.51,1.51,0,0,1,.53.56,1.93,1.93,0,0,1,.2.9,1.67,1.67,0,0,1-.71,1.41,3,3,0,0,1-1.86.53,2.37,2.37,0,0,1-1.8-.63,2.23,2.23,0,0,1-.63-1.52h1.1a1.16,1.16,0,0,0,.39.85A1.5,1.5,0,0,0,276.72,17.29Z"/><path class="cls-4" d="M284.58,11.69v1h-1.87v5.42H281.6V12.73h-1.87v-1Z"/><path class="cls-4" d="M284.92,18.15h-1.25l3.56-6.46h5.16v1h-3.45v1.65h3.29v1h-3.29v1.75h3.45v1h-4.56V16.9h-2.24Zm2.89-5.35-1.7,3.1h1.72V12.8Z"/><path class="cls-4" d="M298.83,18.15h-1.3l-1.31-2.55h-1.48v2.55h-1.1V11.69h2.84a2.19,2.19,0,0,1,1.58.53,1.9,1.9,0,0,1,.55,1.42,2,2,0,0,1-.32,1.15,1.74,1.74,0,0,1-1,.68Zm-1.59-3.82a1,1,0,0,0,0-1.37,1,1,0,0,0-.75-.25h-1.75v1.87h1.75A1,1,0,0,0,297.24,14.33Z"/><path class="cls-4" d="M302,18.15h-2.2V15.43h-.67v-1h.67V11.69H302a3.51,3.51,0,0,1,2.55.88,3.15,3.15,0,0,1,.92,2.35,3.11,3.11,0,0,1-.92,2.34A3.48,3.48,0,0,1,302,18.15Zm1.72-1.62a2.16,2.16,0,0,0,.58-1.61,2.16,2.16,0,0,0-.58-1.61,2.44,2.44,0,0,0-1.76-.58h-1.05v1.68h1.61v1h-1.61v1.68h1.05A2.44,2.44,0,0,0,303.68,16.53Z"/><rect class="cls-8" x="352.1" y="0.1" width="108.45" height="29.86" rx="5.16" ry="5.16"/><path class="cls-4" d="M384.93,17.29a1.94,1.94,0,0,0,1-.23.77.77,0,0,0,.37-.67.7.7,0,0,0-.2-.52,1.17,1.17,0,0,0-.52-.3,6.49,6.49,0,0,0-.7-.18c-.26-.05-.52-.12-.77-.19a3.52,3.52,0,0,1-.71-.3,1.32,1.32,0,0,1-.52-.55,1.86,1.86,0,0,1-.2-.89,1.77,1.77,0,0,1,.63-1.36,2.48,2.48,0,0,1,1.68-.55,2.35,2.35,0,0,1,1.72.6,2.09,2.09,0,0,1,.63,1.54h-1.08a1.18,1.18,0,0,0-.34-.83,1.3,1.3,0,0,0-.93-.32,1.52,1.52,0,0,0-.89.23.77.77,0,0,0-.33.66.62.62,0,0,0,.2.47,1.35,1.35,0,0,0,.53.29c.21.06.45.12.71.17a7.27,7.27,0,0,1,.77.2,3.07,3.07,0,0,1,.71.32,1.51,1.51,0,0,1,.53.56,1.93,1.93,0,0,1,.2.9,1.67,1.67,0,0,1-.71,1.41,3,3,0,0,1-1.86.53,2.37,2.37,0,0,1-1.8-.63,2.17,2.17,0,0,1-.62-1.52h1.09a1.16,1.16,0,0,0,.39.85A1.5,1.5,0,0,0,384.93,17.29Z"/><path class="cls-4" d="M389.66,11.69l2,2.67,2.05-2.67h1v6.46h-1.08V13.43l-2,2.53h0l-1.95-2.53v4.72h-1.08V11.69Z"/><path class="cls-4" d="M397.39,11.69v6.46h-1.1V11.69Zm-.46-2.11h1.12l-.72,1.56h-1Z"/><path class="cls-4" d="M401.12,18.15h-2.2V15.43h-.67v-1h.67V11.69h2.2a3.51,3.51,0,0,1,2.55.88,3.15,3.15,0,0,1,.92,2.35,3.11,3.11,0,0,1-.92,2.34A3.48,3.48,0,0,1,401.12,18.15Zm1.71-1.62a2.13,2.13,0,0,0,.59-1.61,2.13,2.13,0,0,0-.59-1.61,2.41,2.41,0,0,0-1.75-.58H400v1.68h1.62v1H400V17.1h1.06A2.41,2.41,0,0,0,402.83,16.53Z"/><path class="cls-4" d="M406,18.15h-1.16l2.5-6.46h1.18L411,18.15h-1.2l-.47-1.25h-2.89Zm1.92-5.1h0L406.8,15.9H409Z"/><path class="cls-4" d="M416.31,17.13v1h-4.55V11.69h4.55v1h-3.44v1.65h3.28v1h-3.28v1.75Z"/><path class="cls-4" d="M418.66,18.15h-1.1V11.69h4.22v1h-3.12v1.65h3v1h-3Z"/><path class="cls-4" d="M423.9,13.51v4.64h-1.08V11.69h1.12l3.14,4.65V11.69h1.09v6.46H427Z"/><path class="cls-4" d="M430.8,11.69v6.46h-1.1V11.69Z"/><rect class="cls-8" x="467.88" y="0.1" width="108.45" height="29.86" rx="5.16" ry="5.16"/><path class="cls-4" d="M486.41,18.15h-1.1V11.69h4.23v1h-3.13v1.65h3v1h-3Z"/><path class="cls-4" d="M492.66,16.09v-4.4h1.1v4.37a2.17,2.17,0,0,1-.59,1.61,2.14,2.14,0,0,1-1.6.6,2.25,2.25,0,0,1-1.59-.55,2,2,0,0,1-.6-1.53l0-.42h1.11a2.26,2.26,0,0,0,0,.42,1.12,1.12,0,0,0,.29.8,1.19,1.19,0,0,0,1.6,0A1.26,1.26,0,0,0,492.66,16.09Z"/><path class="cls-4" d="M495.78,17.33a3.3,3.3,0,0,1-.94-2.41,3.29,3.29,0,0,1,.94-2.41,3.48,3.48,0,0,1,4.8,0,3.29,3.29,0,0,1,.94,2.41,3.3,3.3,0,0,1-.94,2.41,3.48,3.48,0,0,1-4.8,0Zm.83-4.09a2.37,2.37,0,0,0-.61,1.68,2.37,2.37,0,0,0,.61,1.68,2.27,2.27,0,0,0,3.14,0,2.37,2.37,0,0,0,.61-1.68,2.37,2.37,0,0,0-.61-1.68,2.27,2.27,0,0,0-3.14,0ZM497.85,11a.6.6,0,0,1-.43.17A.62.62,0,0,1,497,11a.57.57,0,0,1-.17-.42.62.62,0,0,1,.17-.44.61.61,0,0,1,.44-.16.59.59,0,0,1,.43.16.62.62,0,0,1,.17.44A.57.57,0,0,1,497.85,11Zm1.56,0a.62.62,0,0,1-.44.17.6.6,0,0,1-.43-.17.56.56,0,0,1-.17-.42.62.62,0,0,1,.17-.44A.59.59,0,0,1,499,10a.55.55,0,0,1,.6.6A.57.57,0,0,1,499.41,11Z"/><path class="cls-4" d="M506.8,17.13v1h-4.1V11.69h1.1v5.44Z"/><path class="cls-4" d="M509.86,18.15h-2.2V11.69h2.2a3.51,3.51,0,0,1,2.55.88,3.15,3.15,0,0,1,.92,2.35,3.11,3.11,0,0,1-.92,2.34A3.48,3.48,0,0,1,509.86,18.15Zm1.71-1.61a2.15,2.15,0,0,0,.59-1.62,2.18,2.18,0,0,0-.59-1.63,2.37,2.37,0,0,0-1.75-.58h-1.06v4.42h1.06A2.33,2.33,0,0,0,511.57,16.54Z"/><path class="cls-4" d="M515.61,11.69v6.46h-1.1V11.69Z"/><path class="cls-4" d="M520.61,18.15h-1.1V11.69h4.23v1h-3.13v1.65h3v1h-3Z"/><path class="cls-4" d="M524.78,18.15h-1.17l2.5-6.46h1.18l2.51,6.46h-1.2l-.46-1.25h-2.9Zm1.92-5.1h0L525.6,15.9h2.17Z"/><path class="cls-4" d="M535.76,18.15h-1.29l-1.32-2.55h-1.48v2.55h-1.1V11.69h2.84a2.19,2.19,0,0,1,1.58.53,1.9,1.9,0,0,1,.55,1.42,2,2,0,0,1-.32,1.15,1.74,1.74,0,0,1-1,.68Zm-1.59-3.82a1,1,0,0,0,0-1.37,1,1,0,0,0-.75-.25h-1.75v1.87h1.75A1,1,0,0,0,534.17,14.33Z"/><path class="cls-4" d="M537.8,16.46v1.69h-1.1V11.69h1.1v.83h1.57a2.18,2.18,0,0,1,1.64.55,1.91,1.91,0,0,1,.53,1.42,1.93,1.93,0,0,1-.54,1.42,2.2,2.2,0,0,1-1.63.55Zm0-1.05h1.58c.7,0,1-.31,1-.92s-.35-.92-1-.92H537.8Z"/><path class="cls-4" d="M547.1,17.13v1h-4.55V11.69h4.55v1h-3.44v1.65h3.28v1h-3.28v1.75Z"/><path class="cls-4" d="M551.23,17.21a2.2,2.2,0,0,0,1.36-.41,1.76,1.76,0,0,0,.69-1.18h-1.62v-1h2.8c0,.1,0,.19,0,.29a3.31,3.31,0,0,1-.92,2.42,3.15,3.15,0,0,1-2.33.93,3.1,3.1,0,0,1-2.31-.93,3.31,3.31,0,0,1-.92-2.42,3.28,3.28,0,0,1,.94-2.42,3.17,3.17,0,0,1,2.36-.94,3.37,3.37,0,0,1,2.06.64,2.81,2.81,0,0,1,1.08,1.74h-1.19a1.63,1.63,0,0,0-.71-1,2.15,2.15,0,0,0-1.24-.35,2,2,0,0,0-1.55.62,2.37,2.37,0,0,0-.58,1.68,2.33,2.33,0,0,0,.58,1.66A2,2,0,0,0,551.23,17.21Z"/><path class="cls-4" d="M555.84,18.15h-1.16l2.5-6.46h1.18l2.51,6.46h-1.2l-.47-1.25h-2.89Zm1.92-5.1h0l-1.08,2.85h2.17Z"/><rect class="cls-8" x="118.43" y="0.1" width="108.45" height="29.86" rx="5.16" ry="5.16"/><path class="cls-4" d="M155.38,17.29a2,2,0,0,0,1-.23.76.76,0,0,0,.36-.67.7.7,0,0,0-.2-.52,1.12,1.12,0,0,0-.52-.3,5.93,5.93,0,0,0-.7-.18c-.26-.05-.51-.12-.77-.19a3.79,3.79,0,0,1-.71-.3,1.3,1.3,0,0,1-.51-.55,1.83,1.83,0,0,1,.43-2.24,2.45,2.45,0,0,1,1.68-.56,2.34,2.34,0,0,1,1.71.6,2.09,2.09,0,0,1,.64,1.54h-1.09a1.13,1.13,0,0,0-.33-.83,1.3,1.3,0,0,0-.93-.32,1.58,1.58,0,0,0-.9.23.79.79,0,0,0-.32.66.59.59,0,0,0,.2.47,1.31,1.31,0,0,0,.52.29c.22.06.45.12.71.17a7.44,7.44,0,0,1,.78.2,3.5,3.5,0,0,1,.71.32,1.48,1.48,0,0,1,.52.56,1.93,1.93,0,0,1,.2.9,1.66,1.66,0,0,1-.7,1.41,3.05,3.05,0,0,1-1.87.53,2.36,2.36,0,0,1-1.79-.63,2.23,2.23,0,0,1-.63-1.52H154a1.24,1.24,0,0,0,.39.85A1.51,1.51,0,0,0,155.38,17.29Z"/><path class="cls-4" d="M160.1,11.69l2,2.67,2.05-2.67h1v6.46h-1.08V13.43l-2,2.53h0l-1.95-2.53v4.72h-1.09V11.69Z"/><path class="cls-4" d="M167.84,11.69v6.46h-1.11V11.69Zm-.47-2.11h1.12l-.72,1.56h-1Z"/><path class="cls-4" d="M171.56,18.15h-2.19V15.43h-.68v-1h.68V11.69h2.19a3.54,3.54,0,0,1,2.56.88,3.14,3.14,0,0,1,.91,2.35,3.1,3.1,0,0,1-.91,2.34A3.5,3.5,0,0,1,171.56,18.15Zm1.72-1.62a2.17,2.17,0,0,0,.59-1.61,2.17,2.17,0,0,0-.59-1.61,2.43,2.43,0,0,0-1.75-.58h-1.06v1.68h1.61v1h-1.61v1.68h1.06A2.43,2.43,0,0,0,173.28,16.53Z"/><path class="cls-4" d="M176.42,18.15h-1.17l2.51-6.46h1.17l2.51,6.46h-1.2l-.46-1.25h-2.9Zm1.92-5.1h0l-1.07,2.85h2.16Z"/><path class="cls-4" d="M182.62,18.15h-1.17L184,11.69h1.17l2.52,6.46h-1.21L186,16.9h-2.9Zm1.92-5.1h0l-1.07,2.85h2.17Zm.13-3.47h1.12l-.72,1.56h-1Z"/><path class="cls-4" d="M193.62,18.15h-1.29L191,15.6h-1.49v2.55h-1.1V11.69h2.84a2.23,2.23,0,0,1,1.59.53,1.93,1.93,0,0,1,.54,1.42,2,2,0,0,1-.32,1.15,1.72,1.72,0,0,1-.94.68ZM192,14.33A1.06,1.06,0,0,0,192,13a1,1,0,0,0-.76-.25h-1.75v1.87h1.75A1,1,0,0,0,192,14.33Z"/><rect class="cls-8" x="0.1" y="0.1" width="108.45" height="29.86" rx="5.16" ry="5.16"/><path class="cls-4" d="M26.08,11.69v1H24.2v5.42H23.1V12.73H21.22v-1Z"/><path class="cls-4" d="M31.45,17.13v1H26.9V11.69h4.55v1H28v1.65h3.28v1H28v1.75Z"/><path class="cls-4" d="M35.58,17.21a2.2,2.2,0,0,0,1.36-.41,1.76,1.76,0,0,0,.69-1.18H36v-1h2.8c0,.1,0,.19,0,.29a3.31,3.31,0,0,1-.92,2.42,3.15,3.15,0,0,1-2.33.93,3.1,3.1,0,0,1-2.31-.93,3.31,3.31,0,0,1-.92-2.42,3.28,3.28,0,0,1,.94-2.42,3.17,3.17,0,0,1,2.36-.94,3.37,3.37,0,0,1,2.06.64,2.81,2.81,0,0,1,1.08,1.74H37.59a1.63,1.63,0,0,0-.71-1,2.15,2.15,0,0,0-1.24-.35,2,2,0,0,0-1.55.62,2.37,2.37,0,0,0-.58,1.68,2.33,2.33,0,0,0,.58,1.66A2,2,0,0,0,35.58,17.21Z"/><path class="cls-4" d="M44.55,17.57a3,3,0,0,1-3.87,0,2.74,2.74,0,0,1-.75-2.08v-3.8H41v3.85a1.88,1.88,0,0,0,.4,1.27,1.54,1.54,0,0,0,1.18.46,1.51,1.51,0,0,0,1.18-.46,1.88,1.88,0,0,0,.41-1.27V11.69h1.1v3.8A2.74,2.74,0,0,1,44.55,17.57Z"/><path class="cls-4" d="M47.85,13.51v4.64H46.77V11.69h1.12L51,16.34V11.69h1.08v6.46H51Z"/><path class="cls-4" d="M55.84,18.15h-2.2V11.69h2.2a3.51,3.51,0,0,1,2.55.88,3.15,3.15,0,0,1,.92,2.35,3.11,3.11,0,0,1-.92,2.34A3.48,3.48,0,0,1,55.84,18.15Zm1.72-1.6a2.23,2.23,0,0,0,.58-1.63,2.21,2.21,0,0,0-.58-1.63,2.41,2.41,0,0,0-1.76-.58h-1v4.42h1A2.41,2.41,0,0,0,57.56,16.55Z"/><path class="cls-4" d="M64.94,17.29a2,2,0,0,0,1-.23.76.76,0,0,0,.36-.67.7.7,0,0,0-.2-.52,1.12,1.12,0,0,0-.52-.3,5.47,5.47,0,0,0-.7-.18c-.25-.05-.51-.12-.77-.19a3.43,3.43,0,0,1-.7-.3,1.26,1.26,0,0,1-.52-.55,1.87,1.87,0,0,1,.43-2.24A2.45,2.45,0,0,1,65,11.55a2.37,2.37,0,0,1,1.72.6,2.09,2.09,0,0,1,.63,1.54H66.29a1.13,1.13,0,0,0-.33-.83,1.3,1.3,0,0,0-.93-.32,1.58,1.58,0,0,0-.9.23.79.79,0,0,0-.32.66.62.62,0,0,0,.2.47,1.31,1.31,0,0,0,.52.29c.22.06.45.12.71.17a7.44,7.44,0,0,1,.78.2,3.27,3.27,0,0,1,.71.32,1.48,1.48,0,0,1,.52.56,1.93,1.93,0,0,1,.2.9,1.66,1.66,0,0,1-.7,1.41,3.05,3.05,0,0,1-1.87.53,2.36,2.36,0,0,1-1.79-.63,2.23,2.23,0,0,1-.63-1.52h1.09a1.24,1.24,0,0,0,.39.85A1.51,1.51,0,0,0,64.94,17.29Z"/><path class="cls-4" d="M74.33,18.15H73L70.89,15.2l-1.13,1.18v1.77H68.65V11.69h1.11V15q.54-.56,3-3.29H74.2l-2.55,2.68Z"/><path class="cls-4" d="M76.09,11.69v6.46H75V11.69Z"/><path class="cls-4" d="M78.73,15.6v2.55H77.62V11.69H80.3a2.22,2.22,0,0,1,1.64.54,2,2,0,0,1,.53,1.42,1.88,1.88,0,0,1-.55,1.42,2.24,2.24,0,0,1-1.62.53Zm0-1h1.58a1.13,1.13,0,0,0,.79-.24.94.94,0,0,0,.26-.69.9.9,0,0,0-.27-.69,1.06,1.06,0,0,0-.78-.25H78.73Z"/><path class="cls-4" d="M85.56,17.29a2,2,0,0,0,1-.23.76.76,0,0,0,.36-.67.7.7,0,0,0-.2-.52,1.12,1.12,0,0,0-.52-.3,5.47,5.47,0,0,0-.7-.18c-.25-.05-.51-.12-.77-.19a3.43,3.43,0,0,1-.7-.3,1.26,1.26,0,0,1-.52-.55A1.87,1.87,0,0,1,84,12.11a2.45,2.45,0,0,1,1.68-.56,2.37,2.37,0,0,1,1.72.6A2.09,2.09,0,0,1,88,13.69H86.91a1.13,1.13,0,0,0-.33-.83,1.3,1.3,0,0,0-.93-.32,1.58,1.58,0,0,0-.9.23.79.79,0,0,0-.32.66.62.62,0,0,0,.2.47,1.31,1.31,0,0,0,.52.29c.22.06.45.12.71.17a7.44,7.44,0,0,1,.78.2,3.27,3.27,0,0,1,.71.32,1.48,1.48,0,0,1,.52.56,1.93,1.93,0,0,1,.2.9,1.66,1.66,0,0,1-.7,1.41,3.05,3.05,0,0,1-1.87.53,2.36,2.36,0,0,1-1.79-.63,2.23,2.23,0,0,1-.63-1.52h1.09a1.24,1.24,0,0,0,.39.85A1.51,1.51,0,0,0,85.56,17.29Z"/></g></g></svg>