<svg xmlns="http://www.w3.org/2000/svg" viewBox="0 0 74.09 56.41"><defs><style>.cls-1{fill:#fff;}.cls-2{fill:#07273c;}</style></defs><g id="Layer_2" data-name="Layer 2"><g id="Almennar_leið_-_forsíða" data-name="Almennar leið - forsíða"><path class="cls-1" d="M39.44.22,66.58,41.59a.49.49,0,0,1-.39.76l-21.28,1a.51.51,0,0,1-.51-.43L38.54.56A.49.49,0,0,1,39.44.22Z"/><polygon class="cls-1" points="35.81 3.95 41.05 43.55 2.34 37.96 35.81 3.95"/><path class="cls-2" d="M.15,49.39a1.78,1.78,0,0,1,1.52-2.48L73.13,42.3A.9.9,0,0,1,74,43.65L67,55.94a.89.89,0,0,1-.79.46H8.08a6.66,6.66,0,0,1-6.4-3.77"/></g></g></svg>