<svg xmlns="http://www.w3.org/2000/svg" viewBox="0 0 69.92 90.78"><defs><style>.cls-1{fill:#07273c;}.cls-2{fill:#fff;}.cls-3{fill:#4e98d3;}</style></defs><g id="Layer_2" data-name="Layer 2"><g id="Almennar_leið_-_forsíða" data-name="Almennar leið - forsíða"><rect class="cls-1" width="69.92" height="69.92" rx="13.87"/><path class="cls-2" d="M37.49,13.25,56.78,42.66a.35.35,0,0,1-.27.54l-15.13.71a.36.36,0,0,1-.37-.3L36.85,13.49A.35.35,0,0,1,37.49,13.25Z"/><polygon class="cls-2" points="34.91 15.9 38.63 44.06 11.11 40.08 34.91 15.9"/><path class="cls-3" d="M9.55,48.2a1.27,1.27,0,0,1,1.08-1.76l50.81-3.27a.64.64,0,0,1,.6,1l-5,8.74a.65.65,0,0,1-.56.32H15.19a4.75,4.75,0,0,1-4.55-2.68"/><path class="cls-2" d="M13.46,89a3.35,3.35,0,0,0,1.8-.41,1.3,1.3,0,0,0,.64-1.18,1.22,1.22,0,0,0-.35-.91,2.26,2.26,0,0,0-.91-.53c-.37-.11-.78-.22-1.23-.31s-.9-.2-1.35-.33a6.08,6.08,0,0,1-1.24-.52,2.5,2.5,0,0,1-.92-1,3.28,3.28,0,0,1-.35-1.57,3.07,3.07,0,0,1,1.11-2.39,4.34,4.34,0,0,1,3-1,4.13,4.13,0,0,1,3,1.05,3.69,3.69,0,0,1,1.11,2.71h-1.9a2,2,0,0,0-.59-1.45,2.23,2.23,0,0,0-1.63-.57,2.67,2.67,0,0,0-1.58.41,1.34,1.34,0,0,0-.57,1.16,1.07,1.07,0,0,0,.35.82,2.33,2.33,0,0,0,.92.5c.38.11.8.21,1.25.3a10.9,10.9,0,0,1,1.36.36,5.46,5.46,0,0,1,1.25.56,2.52,2.52,0,0,1,.92,1,3.2,3.2,0,0,1,.35,1.57,2.93,2.93,0,0,1-1.23,2.48,5.3,5.3,0,0,1-3.28.93,4.17,4.17,0,0,1-3.15-1.1A3.94,3.94,0,0,1,9.1,87H11a2.1,2.1,0,0,0,.69,1.48A2.55,2.55,0,0,0,13.46,89Z"/><path class="cls-2" d="M25.55,82.25H28l-3.21,3.51,3.45,4.8H25.92L23.47,87,22,88.57v2H20.11v-12H22V86.3Z"/><path class="cls-2" d="M33,89.07c1.17,0,1.76-.64,1.76-1.94V82.25h1.9V87a4,4,0,0,1-.87,2.71,3.5,3.5,0,0,1-2.79,1,3.5,3.5,0,0,1-2.79-1A4,4,0,0,1,29.38,87V82.25h1.9v4.88C31.28,88.43,31.87,89.07,33,89.07ZM33.1,78.4h2l-1.26,2.73H32.1Z"/><path class="cls-2" d="M41.46,83.77v6.79H39.55V83.77H38.29V82.25h1.26V80.09h1.91v2.16h1.39v1.52Z"/><path class="cls-2" d="M50.38,82.27h1.76v8.29H50.38V89.37a3,3,0,0,1-2.8,1.38,3.43,3.43,0,0,1-2.8-1.24,5.13,5.13,0,0,1,0-6.19,3.43,3.43,0,0,1,2.8-1.24,3,3,0,0,1,2.8,1.37Zm-4.09,2.25a3.13,3.13,0,0,0,0,3.79,2.08,2.08,0,0,0,1.69.76,2.12,2.12,0,0,0,1.71-.75,3.2,3.2,0,0,0,0-3.81A2.12,2.12,0,0,0,48,83.76,2.08,2.08,0,0,0,46.29,84.52Z"/><path class="cls-2" d="M56.53,82.25v1.11a2.34,2.34,0,0,1,.95-.92,3.22,3.22,0,0,1,1.61-.38,2.91,2.91,0,0,1,2.28.9,3.42,3.42,0,0,1,.81,2.38v5.22H60.27v-5a2.08,2.08,0,0,0-.41-1.38,1.48,1.48,0,0,0-1.24-.51,1.91,1.91,0,0,0-1.43.55,2.1,2.1,0,0,0-.52,1.5v4.82h-1.9V82.25Z"/></g></g></svg>