<svg xmlns="http://www.w3.org/2000/svg" viewBox="0 0 252.2 120.42"><defs><style>.cls-1{fill:#0c283d;}.cls-2{fill:none;stroke:#74d3a8;stroke-miterlimit:10;stroke-width:7.8px;}.cls-3{fill:#fff;}.cls-4{fill:#1c83f4;}</style></defs><title>Asset 4</title><g id="Layer_2" data-name="Layer 2"><g id="logo_sm" data-name="logo sm"><path class="cls-1" d="M145.46,68.21a6.07,6.07,0,0,0,3.31-.77A2.45,2.45,0,0,0,150,65.26a2.11,2.11,0,0,0-.75-1.66,5.37,5.37,0,0,0-2-1c-.8-.24-1.69-.47-2.66-.67a27,27,0,0,1-2.92-.79A12.3,12.3,0,0,1,139,59.88a5.72,5.72,0,0,1-2-2.23,7.42,7.42,0,0,1-.76-3.48,7.24,7.24,0,0,1,2.52-5.61,9.76,9.76,0,0,1,6.81-2.27,9.41,9.41,0,0,1,6.85,2.45,8.44,8.44,0,0,1,2.65,6.08H150A3.83,3.83,0,0,0,148.72,52,4.55,4.55,0,0,0,145.53,51a4.93,4.93,0,0,0-2.95.81,2.46,2.46,0,0,0-1.11,2.07,2.13,2.13,0,0,0,.75,1.69,5.43,5.43,0,0,0,2,1q1.23.36,2.7.66a26.38,26.38,0,0,1,2.95.81,12.94,12.94,0,0,1,2.7,1.28,5.6,5.6,0,0,1,2,2.25,7.6,7.6,0,0,1,.76,3.53,6.82,6.82,0,0,1-2.79,5.63,11.52,11.52,0,0,1-7.33,2.18,12.49,12.49,0,0,1-4.5-.74,7.64,7.64,0,0,1-3.06-2,8.9,8.9,0,0,1-1.67-2.74,10.13,10.13,0,0,1-.63-3.13h5.18a4,4,0,0,0,1.37,2.81A5.28,5.28,0,0,0,145.46,68.21Z"/><path class="cls-1" d="M171.24,53.52h6.41l-7.06,8,7.56,10.84H172.1l-4.89-7.45-2.85,3.24v4.21h-5.11v-27h5.11v16.7Z"/><path class="cls-1" d="M194.57,70.8q-2.16,2-6.41,2t-6.41-2q-2.16-2-2.16-6.48V53.52h5.11V64.4c0,2.56,1.15,3.85,3.46,3.85s3.45-1.29,3.45-3.85V53.52h5.12v10.8Q196.73,68.79,194.57,70.8ZM187.91,45h5.29l-2.88,6.15h-4.61Z"/><path class="cls-1" d="M207,57.56V72.39h-5.12V57.56h-2.55v-4h2.55V48.84H207v4.68h2.77v4Z"/><path class="cls-1" d="M225.53,53.52h4.71V72.39h-4.71V70.08q-1.87,2.74-6,2.74A7.84,7.84,0,0,1,213.21,70,10.63,10.63,0,0,1,210.87,63a10.64,10.64,0,0,1,2.34-7.06,7.84,7.84,0,0,1,6.34-2.81q4.11,0,6,2.74ZM224,66.81a6.49,6.49,0,0,0,0-7.71,4.52,4.52,0,0,0-6.74,0,6.49,6.49,0,0,0,0,7.71,4.52,4.52,0,0,0,6.74,0Z"/><path class="cls-1" d="M239.64,53.52v2.31q1.47-2.74,5.61-2.74a6.5,6.5,0,0,1,5.15,2,8,8,0,0,1,1.8,5.49V72.39h-5.11V61.19q0-3.7-3.2-3.71a3.68,3.68,0,0,0-2.85,1.1,4.3,4.3,0,0,0-1,3v10.8h-5.11V53.52Z"/><path class="cls-1" d="M3.9,60.21c0,31.1,24.63,56.3,55,56.3s55-25.2,55-56.3S89.31,3.9,58.92,3.9s-55,25.21-55,56.31"/><ellipse class="cls-2" cx="58.92" cy="60.21" rx="55.02" ry="56.31"/><polygon class="cls-3" points="59.87 26.19 86.02 66.06 65.52 67.02 59.87 26.19"/><polygon class="cls-3" points="57.2 35.38 58.69 68.7 24.17 61.6 57.2 35.38"/><path class="cls-4" d="M25.29,75.82a1.61,1.61,0,0,1,1.38-2.25l64.87-4.18a.82.82,0,0,1,.77,1.22L86,81.78a.82.82,0,0,1-.71.41H32.49a6,6,0,0,1-5.81-3.43"/></g></g></svg>