<svg xmlns="http://www.w3.org/2000/svg" xmlns:xlink="http://www.w3.org/1999/xlink" viewBox="0 0 116.04 162.49"><defs><style>.cls-1{fill:#0c283d;}.cls-2{fill:url(#radial-gradient);}.cls-3{fill:none;stroke:#75b9d1;stroke-miterlimit:10;stroke-width:6px;}.cls-4{fill:#fff;}.cls-5{fill:#1c83f4;}</style><radialGradient id="radial-gradient" cx="58" cy="59.3" r="55.66" gradientUnits="userSpaceOnUse"><stop offset="0" stop-color="#0c283d"/><stop offset="1" stop-color="#0c283d"/></radialGradient></defs><g id="Layer_2" data-name="Layer 2"><g id="Layer_1-2" data-name="Layer 1"><path class="cls-1" d="M11.11,157.77a6,6,0,0,0,3.31-.77,2.44,2.44,0,0,0,1.23-2.18,2.14,2.14,0,0,0-.75-1.66,5.38,5.38,0,0,0-2-1c-.8-.24-1.69-.47-2.66-.67a24.69,24.69,0,0,1-2.92-.79,12.07,12.07,0,0,1-2.67-1.26,5.74,5.74,0,0,1-2-2.23,7.47,7.47,0,0,1-.76-3.48,7.24,7.24,0,0,1,2.52-5.61,9.8,9.8,0,0,1,6.81-2.27,9.43,9.43,0,0,1,6.85,2.45,8.46,8.46,0,0,1,2.65,6.08H15.65a3.86,3.86,0,0,0-1.28-2.82,4.6,4.6,0,0,0-3.19-1,5,5,0,0,0-2.95.81,2.47,2.47,0,0,0-1.11,2.07,2.13,2.13,0,0,0,.75,1.69,5.38,5.38,0,0,0,2,1q1.23.36,2.7.66a29.91,29.91,0,0,1,2.95.81,13.91,13.91,0,0,1,2.7,1.28,5.71,5.71,0,0,1,2,2.25,7.7,7.7,0,0,1,.76,3.53,6.82,6.82,0,0,1-2.79,5.63,11.45,11.45,0,0,1-7.33,2.18,12.12,12.12,0,0,1-4.5-.74,7.45,7.45,0,0,1-3.06-2A8.85,8.85,0,0,1,1.63,157,10.08,10.08,0,0,1,1,153.86H6.18a4,4,0,0,0,1.37,2.81A5.25,5.25,0,0,0,11.11,157.77Z"/><path class="cls-1" d="M35.89,143.08H42.3l-7.06,8,7.56,10.84h-6l-4.89-7.45L29,157.71v4.21H23.9v-27H29v16.7Z"/><path class="cls-1" d="M59.22,160.36c-1.44,1.34-3.58,2-6.41,2s-5-.66-6.41-2-2.16-3.49-2.16-6.48v-10.8h5.11V154c0,2.56,1.15,3.85,3.46,3.85s3.45-1.29,3.45-3.85V143.08h5.12v10.8Q61.38,158.35,59.22,160.36Zm-6.66-25.8h5.29L55,140.71H50.36Z"/><path class="cls-1" d="M71.65,147.12V162H66.53V147.12H64v-4h2.55V138.4h5.12v4.68h2.77v4Z"/><path class="cls-1" d="M90.18,143.08h4.71V162H90.18v-2.31q-1.87,2.75-6,2.74a7.82,7.82,0,0,1-6.32-2.82,11.73,11.73,0,0,1,0-14.06,7.86,7.86,0,0,1,6.34-2.81c2.74,0,4.74.92,6,2.74Zm-1.53,13.29a6.5,6.5,0,0,0,0-7.71,4.51,4.51,0,0,0-6.38-.35,4,4,0,0,0-.36.35,6.5,6.5,0,0,0,0,7.71,4.5,4.5,0,0,0,6.38.36A3.06,3.06,0,0,0,88.65,156.37Z"/><path class="cls-1" d="M103.29,143.08v2.31c1-1.82,2.85-2.74,5.61-2.74a6.53,6.53,0,0,1,5.15,2,8.05,8.05,0,0,1,1.8,5.49V162h-5.11v-11.2q0-3.69-3.2-3.71a3.71,3.71,0,0,0-2.85,1.1,4.32,4.32,0,0,0-1,3v10.8H98.58V143.08Z"/><path class="cls-2" d="M3,59.31c0,31.1,24.63,56.3,55,56.3s55-25.2,55-56.3S88.41,3,58,3,3,28.21,3,59.31"/><ellipse class="cls-3" cx="58.02" cy="59.31" rx="55.02" ry="56.31"/><polygon class="cls-4" points="58.97 25.29 85.12 65.16 64.62 66.12 58.97 25.29"/><polygon class="cls-4" points="56.3 34.48 57.79 67.8 23.27 60.7 56.3 34.48"/><path class="cls-5" d="M24.39,74.92a1.61,1.61,0,0,1,.83-2.12,1.77,1.77,0,0,1,.55-.13l64.87-4.18a.82.82,0,0,1,.77,1.22L85.1,80.88a.84.84,0,0,1-.71.41H31.59a6,6,0,0,1-5.81-3.43"/></g></g></svg>