<svg xmlns="http://www.w3.org/2000/svg" viewBox="0 0 85.5 122.99"><defs><style>.cls-1{fill:#0e527c;}.cls-2{fill:none;stroke:#75b9d1;stroke-miterlimit:10;stroke-width:4.42px;}.cls-3{fill:#fff;}.cls-4{fill:#1c83f4;}</style></defs><g id="Layer_2" data-name="Layer 2"><g id="Layer_1-2" data-name="Layer 1"><path class="cls-1" d="M2.21,43.7c0,22.92,18.15,41.49,40.53,41.49S83.26,66.62,83.26,43.7,65.14,2.21,42.75,2.21,2.23,20.79,2.23,43.7"/><ellipse class="cls-2" cx="42.75" cy="43.7" rx="40.54" ry="41.49"/><polygon class="cls-3" points="43.45 18.64 62.72 48.01 47.62 48.72 43.45 18.64"/><polygon class="cls-3" points="40.38 24.45 43.59 48.82 17.8 45.8 40.38 24.45"/><path class="cls-4" d="M18,55.2a1.18,1.18,0,0,1,.62-1.56,1.06,1.06,0,0,1,.4-.09l47.8-3.08a.6.6,0,0,1,.64.56.59.59,0,0,1-.08.34L62.71,59.6a.63.63,0,0,1-.53.3H23.28A4.43,4.43,0,0,1,19,57.37"/><path class="cls-1" d="M11.78,120.37a5,5,0,0,0,2.71-.61,2,2,0,0,0,1-1.77,1.84,1.84,0,0,0-.53-1.36,3.25,3.25,0,0,0-1.37-.8,18.52,18.52,0,0,0-1.85-.46c-.67-.14-1.34-.31-2-.51a8.37,8.37,0,0,1-1.85-.78,3.53,3.53,0,0,1-1.37-1.44,4.72,4.72,0,0,1-.53-2.35,4.57,4.57,0,0,1,1.67-3.58A6.47,6.47,0,0,1,12,105.25a6.22,6.22,0,0,1,4.53,1.57,5.62,5.62,0,0,1,1.67,4.07H15.35a3,3,0,0,0-.89-2.17,3.32,3.32,0,0,0-2.45-.85,4,4,0,0,0-2.36.61,2,2,0,0,0-.85,1.74,1.58,1.58,0,0,0,.53,1.23,3.38,3.38,0,0,0,1.38.75,18.39,18.39,0,0,0,1.87.45c.68.14,1.36.32,2,.53a9.09,9.09,0,0,1,1.87.84,3.83,3.83,0,0,1,1.38,1.49,4.93,4.93,0,0,1,.53,2.36,4.41,4.41,0,0,1-1.85,3.72,8,8,0,0,1-4.92,1.4,6.29,6.29,0,0,1-4.73-1.66,5.84,5.84,0,0,1-1.65-4H8.13a3.08,3.08,0,0,0,1,2.23A3.83,3.83,0,0,0,11.78,120.37Z"/><path class="cls-1" d="M29.44,110.19H33l-4.83,5.26,5.19,7.2H30l-3.67-5.33-2.19,2.35v3H21.28v-18h2.85v11.62Z"/><path class="cls-1" d="M40.19,120.42q2.64,0,2.64-2.91v-7.32h2.86v7.18a6,6,0,0,1-1.31,4.07,5.28,5.28,0,0,1-4.19,1.5,5.28,5.28,0,0,1-4.19-1.5,6,6,0,0,1-1.3-4.07v-7.18h2.85v7.32Q37.55,120.42,40.19,120.42Zm.1-16h3l-1.9,4.1H38.78Z"/><path class="cls-1" d="M52.33,112.47v10.18H49.48V112.47h-1.9v-2.28h1.9V107h2.85v3.24h2.09v2.28Z"/><path class="cls-1" d="M65.25,110.22h2.64v12.43H65.25v-1.78a4.55,4.55,0,0,1-4.2,2.07,5.21,5.21,0,0,1-4.22-1.86,7.78,7.78,0,0,1,0-9.29,5.21,5.21,0,0,1,4.22-1.86,4.56,4.56,0,0,1,4.2,2.06Zm-6.15,3.37a4.7,4.7,0,0,0,0,5.69,3.43,3.43,0,0,0,5.1,0,4.77,4.77,0,0,0,0-5.71,3.43,3.43,0,0,0-5.1,0Z"/><path class="cls-1" d="M74,110.19v1.66a3.6,3.6,0,0,1,1.43-1.38,4.8,4.8,0,0,1,2.41-.56,4.34,4.34,0,0,1,3.42,1.34,5.14,5.14,0,0,1,1.21,3.58v7.82H79.6v-7.46a3.2,3.2,0,0,0-.61-2.08,2.27,2.27,0,0,0-1.86-.76,2.84,2.84,0,0,0-2.15.82,3.13,3.13,0,0,0-.78,2.26v7.22H71.34V110.19Z"/></g></g></svg>