<svg xmlns="http://www.w3.org/2000/svg" viewBox="0 0 80.11 128.89"><defs><style>.cls-1{fill:#8cc7b6;}.cls-2{fill:#e78090;}.cls-3{fill:#242c5d;}</style></defs><g id="Layer_2" data-name="Layer 2"><g id="login"><path class="cls-1" d="M60.62,99.86a11,11,0,0,1-.07,1.52l-46.93,27.1a3,3,0,0,1-4.1-1.08,2.92,2.92,0,0,1-.4-1.53V93.69a4.53,4.53,0,0,1,2.25-3.92L35,76.12,53.69,86.87l.1.07a15.56,15.56,0,0,1,6.83,12.92Z"/><path class="cls-2" d="M71.68,8.93l-5,19a4.59,4.59,0,0,1-2.1,2.76L45,41.94,26.39,31.19l-.11-.08a15.62,15.62,0,0,1-6.79-12.92,8.68,8.68,0,0,1,.09-1.52L47.28.61A4.47,4.47,0,0,1,50.71.16L69.56,5.25a3,3,0,0,1,2.12,3.66Z"/><path class="cls-3" d="M80.11,76.12a24,24,0,0,1-4.22,13.72,23.6,23.6,0,0,1-3,3.5,24.31,24.31,0,0,1-4.61,3.53l-3.06,1.76-4.7,2.75A15.61,15.61,0,0,0,53.79,87l-.09-.07L35,76.13l-23-13.24a24.43,24.43,0,0,1-5.3-4.14A23.84,23.84,0,0,1,0,42a24.75,24.75,0,0,1,.16-2.85A23.9,23.9,0,0,1,12,21.11l7.59-4.38c-.05.5-.08,1-.08,1.52a15.63,15.63,0,0,0,6.79,12.89l.11.08L45,42l23,13.31a13.21,13.21,0,0,1,1.14.7,25,25,0,0,1,3,2.3l.16.14a24.07,24.07,0,0,1,7.74,17.7Z"/></g></g></svg>