<svg xmlns="http://www.w3.org/2000/svg" xmlns:xlink="http://www.w3.org/1999/xlink" viewBox="0 0 1352.74 659.46"><defs><style>.cls-1{fill:#0e283e;}.cls-2{opacity:0.23;fill:url(#New_Gradient_Swatch_4);}.cls-3{fill:url(#New_Gradient_Swatch_4-2);}.cls-4,.cls-5{font-size:20px;fill:#29abe2;font-family:Eina03-Regular, "Eina 03";}.cls-5{opacity:0.97;}.cls-6{letter-spacing:-0.01em;}.cls-7{letter-spacing:-0.02em;}.cls-8{letter-spacing:0em;}.cls-10,.cls-9{fill:none;stroke:#fff;stroke-miterlimit:10;}.cls-9{stroke-width:0.5px;opacity:0.5;}.cls-10{stroke-width:2px;}.cls-11,.cls-17{font-size:28px;}.cls-11,.cls-16,.cls-17{fill:#fff;font-family:Eina03-SemiBold, "Eina 03";font-weight:600;}.cls-12{letter-spacing:-0.02em;}.cls-13{letter-spacing:0em;}.cls-14{letter-spacing:-0.01em;}.cls-15{fill:url(#New_Gradient_Swatch_4-3);}.cls-16,.cls-17{opacity:0.87;}.cls-16{font-size:32px;}</style><linearGradient id="New_Gradient_Swatch_4" x1="22.28" y1="427.89" x2="1332.04" y2="427.89" gradientUnits="userSpaceOnUse"><stop offset="0" stop-color="#054b8f"/><stop offset="1" stop-color="#6ea4dc"/></linearGradient><linearGradient id="New_Gradient_Swatch_4-2" x1="1018.62" y1="398.14" x2="301.06" y2="398.14" xlink:href="#New_Gradient_Swatch_4"/><linearGradient id="New_Gradient_Swatch_4-3" x1="797.65" y1="155.07" x2="522.03" y2="155.07" xlink:href="#New_Gradient_Swatch_4"/></defs><g id="Layer_2" data-name="Layer 2"><g id="bg"><rect class="cls-1" width="1352.74" height="659.46" rx="10"/></g><g id="_2_-_skoðunargluggi" data-name="2 - skoðunargluggi"><rect class="cls-2" x="22.28" y="335.46" width="1309.76" height="184.86"/><rect class="cls-3" x="301.06" y="276.2" width="717.56" height="243.87"/><text class="cls-4" transform="translate(808.14 262.3)">+3 mán</text><text class="cls-5" transform="translate(7.7 550.03)">jan</text><text class="cls-5" transform="translate(125.97 550.03)"><tspan class="cls-6">f</tspan><tspan x="6" y="0">eb</tspan></text><text class="cls-5" transform="translate(240.89 550.03)">mar</text><text class="cls-5" transform="translate(363.57 550.03)">apr</text><text class="cls-5" transform="translate(479.99 550.03)">maí</text><text class="cls-5" transform="translate(604.52 550.03)">jún</text><text class="cls-5" transform="translate(726.84 550.03)">júl</text><text class="cls-5" transform="translate(840.21 550.03)">ágú</text><text class="cls-5" transform="translate(958.17 550.03)">sep</text><text class="cls-5" transform="translate(1079.67 550.03)">okt</text><text class="cls-5" transform="translate(1194.99 550.03)">n<tspan class="cls-7" x="11.96" y="0">ó</tspan><tspan class="cls-8" x="23.94" y="0">v</tspan></text><text class="cls-5" transform="translate(1314.69 550.03)">des</text><line class="cls-9" x1="22.28" y1="520.32" x2="22.28" y2="337.82"/><line class="cls-9" x1="379.28" y1="520.32" x2="379.28" y2="276.2"/><line class="cls-9" x1="141.28" y1="520.32" x2="141.28" y2="337.82"/><line class="cls-9" x1="260.28" y1="520.32" x2="260.28" y2="337.82"/><line class="cls-9" x1="300.63" y1="520.07" x2="300.63" y2="276.2"/><line class="cls-9" x1="1018.62" y1="520.07" x2="1018.62" y2="276.2"/><line class="cls-10" x1="659.28" y1="520.32" x2="659.28" y2="150.6"/><line class="cls-9" x1="498.28" y1="520.32" x2="498.28" y2="276.2"/><line class="cls-9" x1="617.28" y1="520.32" x2="617.28" y2="276.2"/><line class="cls-9" x1="736.28" y1="520.32" x2="736.28" y2="276.2"/><line class="cls-9" x1="855.28" y1="520.32" x2="855.28" y2="276.2"/><line class="cls-9" x1="974.28" y1="520.32" x2="974.28" y2="276.2"/><line class="cls-9" x1="1093.28" y1="520.32" x2="1093.28" y2="337.82"/><line class="cls-9" x1="1212.28" y1="520.32" x2="1212.28" y2="337.82"/><line class="cls-9" x1="1331.28" y1="520.32" x2="1331.28" y2="337.82"/><text class="cls-11" transform="translate(554.16 620.28)">S<tspan class="cls-6" x="17.81" y="0">k</tspan><tspan x="33.29" y="0">oðuna</tspan><tspan class="cls-12" x="118.86" y="0">r</tspan><tspan class="cls-13" x="128.49" y="0">glu</tspan><tspan class="cls-14" x="170.01" y="0">g</tspan><tspan x="187.29" y="0">gi</tspan></text><text class="cls-4" transform="translate(442.54 262.3)">-3 mán</text><rect class="cls-15" x="522.03" y="126.54" width="275.63" height="57.06" rx="18.69"/><text class="cls-11" transform="translate(529.81 99.12)">Afmælisdagsetning</text><text class="cls-16" transform="translate(617.01 167.2) scale(1.03 1)">10.06</text><text class="cls-17" transform="translate(263.64 262.3) scale(1.03 1)">10.03</text><text class="cls-17" transform="translate(981.65 262.3) scale(1.03 1)">10.09</text></g></g></svg>